<svg width="219" height="81" viewBox="0 0 219 81" fill="none" xmlns="http://www.w3.org/2000/svg">
<path d="M21.184 43.8C20.5654 48.8773 18.976 52.7706 16.416 55.48C13.8774 58.168 10.496 59.512 6.272 59.512C5.12 59.512 4.04267 59.4373 3.04 59.288C2.03734 59.1386 1.024 58.9146 0 58.616L0.447996 55.128C0.490666 54.808 0.607996 54.5306 0.799996 54.296C1.01334 54.0613 1.33334 53.944 1.76 53.944C1.97334 53.944 2.21867 53.976 2.496 54.04C2.77334 54.0826 3.08267 54.1466 3.424 54.232C3.78667 54.296 4.192 54.36 4.64 54.424C5.10934 54.4666 5.64267 54.488 6.24 54.488C7.34934 54.488 8.39467 54.3066 9.37596 53.944C10.3574 53.5813 11.2427 52.984 12.032 52.152C12.8214 51.32 13.4827 50.232 14.016 48.888C14.5707 47.544 14.9654 45.8906 15.2 43.928L18.944 13.144H24.928L21.184 43.8Z" fill="black"/>
<path d="M60.776 59H56.168C55.6347 59 55.2187 58.872 54.92 58.616C54.6214 58.3386 54.4187 57.9866 54.312 57.56L51.816 46.36H33.128L27.88 57.56C27.688 57.944 27.3894 58.2853 26.984 58.584C26.6 58.8613 26.1627 59 25.672 59H21L43.496 13.144H49.544L60.776 59ZM35.144 42.008H50.856L46.632 23.032C46.504 22.4773 46.3654 21.848 46.216 21.144C46.0667 20.44 45.9387 19.6826 45.832 18.872C45.5334 19.6826 45.224 20.4506 44.904 21.176C44.6054 21.88 44.3174 22.5093 44.04 23.064L35.144 42.008Z" fill="black"/>
<path d="M80.6657 54.36C82.0737 54.36 83.3217 54.2426 84.4097 54.008C85.4977 53.7733 86.4577 53.4853 87.2897 53.144C88.1217 52.8026 88.8257 52.4293 89.4017 52.024C89.9991 51.5973 90.5111 51.2133 90.9377 50.872C91.3857 50.5306 91.7591 50.2426 92.0578 50.008C92.3564 49.7733 92.6231 49.656 92.8577 49.656C93.0497 49.656 93.2097 49.6986 93.3377 49.784C93.4657 49.848 93.5724 49.9333 93.6577 50.04L95.7374 52.632C93.7324 54.808 91.4177 56.504 88.7937 57.72C86.1911 58.9146 83.1511 59.512 79.6737 59.512C76.9431 59.512 74.4897 59.0213 72.3137 58.04C70.1377 57.0586 68.2924 55.6933 66.7777 53.944C65.2844 52.1733 64.1324 50.072 63.3217 47.64C62.5324 45.208 62.1377 42.5306 62.1377 39.608C62.1377 35.6186 62.7564 31.9706 63.9937 28.664C65.2311 25.3573 66.9271 22.52 69.0817 20.152C71.2577 17.7626 73.8071 15.9173 76.7297 14.616C79.6524 13.2933 82.7991 12.632 86.1697 12.632C87.7911 12.632 89.2631 12.7706 90.5857 13.048C91.9084 13.3253 93.1137 13.7306 94.2017 14.264C95.2894 14.7973 96.2714 15.4373 97.1454 16.184C98.0414 16.9306 98.8734 17.7626 99.6414 18.68L97.5934 21.176C97.4234 21.3893 97.2314 21.5706 97.0174 21.72C96.8044 21.848 96.5374 21.912 96.2174 21.912C95.8334 21.912 95.4284 21.6986 95.0014 21.272C94.5751 20.8453 93.9884 20.3866 93.2417 19.896C92.5164 19.384 91.5671 18.9146 90.3937 18.488C89.2417 18.0613 87.7377 17.848 85.8817 17.848C83.4071 17.848 81.0924 18.3493 78.9377 19.352C76.7831 20.3333 74.9164 21.752 73.3377 23.608C71.7591 25.4426 70.5111 27.672 69.5937 30.296C68.6977 32.92 68.2497 35.864 68.2497 39.128C68.2497 41.496 68.5591 43.6186 69.1777 45.496C69.7964 47.3733 70.6497 48.9733 71.7377 50.296C72.8471 51.5973 74.1591 52.6 75.6737 53.304C77.1884 54.008 78.8524 54.36 80.6657 54.36Z" fill="black"/>
<path d="M160.248 20.552C160.014 20.8506 159.79 21.0853 159.576 21.256C159.363 21.4053 159.107 21.48 158.808 21.48C158.446 21.48 158.062 21.2986 157.656 20.936C157.251 20.552 156.728 20.1466 156.088 19.72C155.47 19.272 154.712 18.8666 153.816 18.504C152.92 18.12 151.8 17.928 150.456 17.928C149.091 17.928 147.875 18.1413 146.808 18.568C145.742 18.9946 144.835 19.5813 144.088 20.328C143.363 21.0533 142.808 21.9066 142.424 22.888C142.04 23.8693 141.848 24.9253 141.848 26.056C141.848 27.1653 142.104 28.104 142.616 28.872C143.128 29.6186 143.8 30.2693 144.632 30.824C145.464 31.3573 146.414 31.8373 147.48 32.264C148.568 32.6693 149.667 33.096 150.776 33.544C151.886 33.9706 152.974 34.4506 154.04 34.984C155.128 35.5173 156.088 36.1786 156.92 36.968C157.752 37.7573 158.424 38.7066 158.936 39.816C159.448 40.9253 159.704 42.2693 159.704 43.848C159.704 46.024 159.331 48.0826 158.584 50.024C157.838 51.944 156.76 53.6293 155.352 55.08C153.966 56.5306 152.28 57.6826 150.296 58.536C148.312 59.3893 146.083 59.816 143.608 59.816C140.878 59.816 138.435 59.2826 136.28 58.216C134.147 57.128 132.387 55.6666 131 53.832L133.112 50.984C133.283 50.7493 133.496 50.5573 133.752 50.408C134.008 50.2586 134.286 50.184 134.584 50.184C134.99 50.184 135.427 50.4293 135.896 50.92C136.366 51.3893 136.963 51.9226 137.688 52.52C138.414 53.096 139.31 53.6293 140.376 54.12C141.443 54.5893 142.776 54.824 144.376 54.824C145.848 54.824 147.171 54.5893 148.344 54.12C149.539 53.6506 150.542 53 151.352 52.168C152.184 51.336 152.824 50.344 153.272 49.192C153.72 48.0186 153.944 46.728 153.944 45.32C153.944 44.1466 153.688 43.176 153.176 42.408C152.664 41.6186 151.992 40.9573 151.16 40.424C150.328 39.8906 149.379 39.432 148.312 39.048C147.267 38.6426 146.179 38.2373 145.048 37.832C143.939 37.4266 142.851 36.968 141.784 36.456C140.739 35.944 139.8 35.2933 138.968 34.504C138.136 33.7146 137.464 32.744 136.952 31.592C136.44 30.44 136.184 29.0213 136.184 27.336C136.184 25.4586 136.526 23.656 137.208 21.928C137.891 20.2 138.872 18.6746 140.152 17.352C141.432 16.0293 142.99 14.9733 144.824 14.184C146.659 13.3946 148.728 13 151.032 13C153.379 13 155.491 13.448 157.368 14.344C159.246 15.24 160.792 16.4666 162.008 18.024L160.248 20.552Z" fill="black"/>
<path d="M129.248 20.248C129.014 20.5466 128.79 20.7813 128.576 20.952C128.363 21.1013 128.107 21.176 127.808 21.176C127.446 21.176 127.062 20.9946 126.656 20.632C126.251 20.248 125.728 19.8426 125.088 19.416C124.47 18.968 123.712 18.5626 122.816 18.2C121.92 17.816 120.8 17.624 119.456 17.624C118.091 17.624 116.875 17.8373 115.808 18.264C114.742 18.6906 113.835 19.2773 113.088 20.024C112.363 20.7493 111.808 21.6026 111.424 22.584C111.04 23.5653 110.848 24.6213 110.848 25.752C110.848 26.8613 111.104 27.8 111.616 28.568C112.128 29.3146 112.8 29.9653 113.632 30.52C114.464 31.0533 115.414 31.5333 116.48 31.96C117.568 32.3653 118.667 32.792 119.776 33.24C120.886 33.6666 121.974 34.1466 123.04 34.68C124.128 35.2133 125.088 35.8746 125.92 36.664C126.752 37.4533 127.424 38.4026 127.936 39.512C128.448 40.6213 128.704 41.9653 128.704 43.544C128.704 45.72 128.331 47.7786 127.584 49.72C126.838 51.64 125.76 53.3253 124.352 54.776C122.966 56.2266 121.28 57.3786 119.296 58.232C117.312 59.0853 115.083 59.512 112.608 59.512C109.878 59.512 107.435 58.9786 105.28 57.912C103.147 56.824 101.387 55.3626 100 53.528L102.112 50.68C102.283 50.4453 102.496 50.2533 102.752 50.104C103.008 49.9546 103.286 49.88 103.584 49.88C103.99 49.88 104.427 50.1253 104.896 50.616C105.366 51.0853 105.963 51.6186 106.688 52.216C107.414 52.792 108.31 53.3253 109.376 53.816C110.443 54.2853 111.776 54.52 113.376 54.52C114.848 54.52 116.171 54.2853 117.344 53.816C118.539 53.3466 119.542 52.696 120.352 51.864C121.184 51.032 121.824 50.04 122.272 48.888C122.72 47.7146 122.944 46.424 122.944 45.016C122.944 43.8426 122.688 42.872 122.176 42.104C121.664 41.3146 120.992 40.6533 120.16 40.12C119.328 39.5866 118.379 39.128 117.312 38.744C116.267 38.3386 115.179 37.9333 114.048 37.528C112.939 37.1226 111.851 36.664 110.784 36.152C109.739 35.64 108.8 34.9893 107.968 34.2C107.136 33.4106 106.464 32.44 105.952 31.288C105.44 30.136 105.184 28.7173 105.184 27.032C105.184 25.1546 105.526 23.352 106.208 21.624C106.891 19.896 107.872 18.3706 109.152 17.048C110.432 15.7253 111.99 14.6693 113.824 13.88C115.659 13.0906 117.728 12.696 120.032 12.696C122.379 12.696 124.491 13.144 126.368 14.04C128.246 14.936 129.792 16.1626 131.008 17.72L129.248 20.248Z" fill="black"/>
<path d="M171.975 39.2569L166.379 60.1413C164.799 66.0382 168.299 72.0994 174.196 73.6795C180.092 75.2595 186.154 71.7601 187.734 65.8632L201.086 16.0348C201.963 12.7587 205.331 10.8143 208.607 11.6922C211.884 12.5701 213.828 15.9376 212.95 19.2139L207.354 40.0991L212.099 41.3704L217.695 20.4854C219.275 14.5887 215.776 8.52738 209.879 6.94734C203.982 5.36726 197.921 8.86669 196.341 14.7636L182.989 64.5919C182.111 67.8681 178.743 69.8124 175.467 68.9345C172.191 68.0566 170.247 64.6892 171.124 61.4129L176.72 40.5284L171.975 39.2569Z" fill="#414BB8"/>
<path d="M182.714 18.1661L186.703 3.28016C187.054 1.96979 186.276 0.622843 184.966 0.271683C183.655 -0.07943 182.308 0.698233 181.957 2.0086L177.968 16.8945L182.714 18.1661Z" fill="#414BB8"/>
<path d="M179.849 17.3985L183.838 2.51256C184.045 1.741 183.858 0.958402 183.403 0.372142C183.883 0.176232 184.427 0.127332 184.966 0.271702C186.276 0.622822 187.054 1.96977 186.702 3.28014L182.714 18.166L179.849 17.3985Z" fill="#414BB8"/>
<path d="M206.107 63.733L202.118 78.6189C201.767 79.9293 200.42 80.7069 199.11 80.3558C197.799 80.0047 197.022 78.6577 197.373 77.3473L201.361 62.4614L206.107 63.733Z" fill="#414BB8"/>
<path d="M203.243 62.9654L199.255 77.8513C199.048 78.6229 198.495 79.2072 197.808 79.4878C198.125 79.8971 198.572 80.2114 199.111 80.3558C200.421 80.7069 201.768 79.9293 202.119 78.6189L206.108 63.733L203.243 62.9654Z" fill="#414BB8"/>
<path d="M203.361 73.9849L198.616 72.7134L198.04 74.8618L202.785 76.1333L203.361 73.9849Z" fill="#414BB8"/>
<path d="M171.869 34.9095L170.827 38.7958C170.7 39.2705 170.982 39.7583 171.456 39.8854L176.856 41.3323C177.331 41.4595 177.819 41.1778 177.946 40.7032L178.987 36.8169L171.869 34.9095Z" fill="#414BB8"/>
<path d="M176.629 15.8399L184.401 17.9225C184.876 18.0497 185.158 18.5375 185.03 19.0121L180.848 34.6226C180.823 34.715 180.783 34.8028 180.731 34.8825L178.67 38.0035L171.552 36.0962L171.328 32.363C171.322 32.2675 171.332 32.1719 171.356 32.0795L175.539 16.469C175.666 15.9943 176.154 15.7127 176.629 15.8399Z" fill="#414BB8"/>
<path d="M184.401 17.9225L181.532 17.1537C182.007 17.2809 182.288 17.7686 182.161 18.2433L177.978 33.8538C177.953 33.9462 177.914 34.034 177.861 34.1137L175.801 37.2347L178.67 38.0035L180.731 34.8825C180.783 34.8028 180.823 34.715 180.848 34.6226L185.03 19.0121C185.158 18.5375 184.876 18.0497 184.401 17.9225Z" fill="#414BB8"/>
<path d="M205.089 43.8096L206.13 39.9233C206.257 39.4487 206.745 39.1671 207.22 39.2942L212.619 40.7411C213.094 40.8683 213.376 41.356 213.248 41.8307L212.207 45.717L205.089 43.8096Z" fill="#414BB8"/>
<path d="M199.675 62.704L207.448 64.7867C207.923 64.9138 208.41 64.6322 208.538 64.1576L212.72 48.5471C212.745 48.4547 212.755 48.3589 212.749 48.2636L212.525 44.5304L205.407 42.623L203.346 45.744C203.293 45.8239 203.254 45.9115 203.229 46.0039L199.046 61.6146C198.919 62.0891 199.201 62.5769 199.675 62.704Z" fill="#414BB8"/>
<path d="M207.448 64.7867L204.579 64.0178C205.053 64.145 205.541 63.8634 205.668 63.3887L209.851 47.7782C209.876 47.6859 209.885 47.5901 209.88 47.4947L209.656 43.7615L212.525 44.5304L212.749 48.2636C212.755 48.3589 212.745 48.4547 212.72 48.5471L208.538 64.1576C208.41 64.6322 207.923 64.9138 207.448 64.7867Z" fill="#414BB8"/>
</svg>
